<svg xmlns="http://www.w3.org/2000/svg" width="3000" height="700"><style><![CDATA[.B{fill:#4cb749}.J,.K,.L,.M,.N,.O,.P,.R,.S,.T,.U,.V,.W,.X,.Y,.Z,.a,.b,.c,.d,.e,.f,.g,.h,.i,.j,.D,.E,.F,.G,.H,.I{fill:none;stroke-linecap:round;stroke-miterlimit:10}.J,.K,.L,.M,.N,.O,.P,.D,.E,.F,.G,.H,.I{stroke:#4cb749;stroke-width:8px}.Q{fill:#4dba4a}.R,.S,.T,.U,.V,.W,.X,.Y,.Z,.a,.b,.c,.d,.e,.f,.g,.h,.i,.j{stroke:#4dba4a;stroke-width:6px}.k{stroke-dasharray:21.030000686645508px, 21.030000686645508px}]]></style><path d="M0 0h3000v700H0z" fill="#4cbf4b"/><path class="B" d="M115.68 274.27c-3.18-2.92-7.5-4-12.06-3.76-1.74-32.83-22.3-50.9-49.2-59.6 25.64 8.33 29.2 2.42 29.56 1.68 4.53-9.48-25.36-23.9-23.47-18.48 1.57 4.5 13.37 7.34 10.37 9.87-2.48 2.1-12.75-3-35.36-1.45-36.08 2.54-65.52 35.1-68.2 68.12-4.67-.23-9.1.92-12.3 4-7.73 7.35-4.3 22 1.17 30.22a35.94 35.94 0 0 0 18 13.52c4.93 13 34 32.5 63.7 31.63 26-.75 52-17.2 58.15-31.23a35.84 35.84 0 0 0 19-14.23c5.3-8.4 8.48-23.06.62-30.28zm364.72-137c-3.18-2.92-7.5-4-12.06-3.76-1.74-32.82-22.3-50.88-49.2-59.6 25.64 8.34 29.2 2.43 29.56 1.68 4.53-9.48-25.36-23.9-23.47-18.48 1.58 4.5 13.37 7.34 10.37 9.87-2.48 2.1-12.75-3-35.36-1.44-36.08 2.53-65.52 35.08-68.18 68.1-4.68-.22-9.1.92-12.3 4-7.74 7.36-4.32 22 1.17 30.22a35.89 35.89 0 0 0 18 13.53c4.93 13 33.95 32.5 63.7 31.63 26-.76 52-17.2 58.15-31.24a35.9 35.9 0 0 0 19-14.23c5.3-8.38 8.47-23.06.6-30.28zm-7.52 426.1c-3.18-2.92-7.5-4-12.06-3.76-1.74-32.83-22.3-50.9-49.2-59.6 25.63 8.34 29.2 2.43 29.56 1.68 4.53-9.48-25.37-23.9-23.47-18.48 1.57 4.5 13.37 7.34 10.37 9.87-2.48 2.1-12.75-3-35.36-1.45-36.1 2.54-65.52 35.1-68.2 68.12-4.68-.22-9.1.92-12.3 4-7.74 7.36-4.3 22 1.17 30.22a36 36 0 0 0 18 13.52c4.94 13 34 32.5 63.7 31.63 26-.75 52-17.2 58.16-31.23a35.87 35.87 0 0 0 19-14.23c5.3-8.4 8.47-23.06.6-30.28zM752.2 192.55c-3.2-2.92-7.5-4-12.06-3.77-1.74-32.78-22.3-50.88-49.15-59.6 25.63 8.34 29.2 2.43 29.56 1.7 4.44-9.5-25.42-23.86-23.56-18.48 1.57 4.5 13.36 7.33 10.37 9.87-2.48 2.1-12.76-3-35.36-1.45-36.1 2.53-65.52 35.08-68.2 68.1-4.68-.22-9.1.93-12.3 4-7.74 7.35-4.3 22 1.17 30.22a36 36 0 0 0 18 13.52c4.94 13 34 32.5 63.7 31.63 26-.75 52-17.2 58.16-31.23a35.84 35.84 0 0 0 19-14.24c5.34-8.37 8.5-23.05.65-30.26zm185.5 342.17c-3.18-2.92-7.5-4-12.06-3.77-1.73-32.82-22.3-50.88-49.2-59.6 25.63 8.33 29.2 2.42 29.56 1.68 4.53-9.5-25.37-23.9-23.47-18.48 1.57 4.5 13.36 7.33 10.37 9.87-2.48 2.1-12.76-3-35.37-1.45-36.08 2.54-65.5 35.08-68.18 68.12-4.68-.23-9.1.92-12.3 4-7.74 7.35-4.3 22 1.17 30.22a35.93 35.93 0 0 0 18 13.52c4.93 13 34 32.5 63.7 31.63 26-.75 52-17.2 58.16-31.23a35.88 35.88 0 0 0 19-14.24c5.3-8.38 8.47-23.05.6-30.27zm376.35-256.22c-3.2-2.92-7.5-4-12.06-3.76-1.74-32.82-22.3-50.88-49.2-59.6 25.63 8.34 29.2 2.43 29.56 1.68 4.53-9.48-25.37-23.9-23.47-18.48 1.57 4.5 13.36 7.34 10.37 9.87-2.48 2.1-12.76-3-35.36-1.45-36.1 2.54-65.52 35.1-68.2 68.12-4.68-.22-9.1.92-12.3 4-7.74 7.36-4.3 22 1.17 30.22a36 36 0 0 0 18 13.53c4.94 13 34 32.5 63.7 31.63 26-.76 52-17.2 58.16-31.24a35.87 35.87 0 0 0 19-14.23c5.3-8.4 8.47-23.06.6-30.28zM2061 512.87c-3.18-2.92-7.5-4-12.06-3.76-1.74-32.82-22.3-50.88-49.2-59.6 25.64 8.34 29.2 2.43 29.56 1.68 4.54-9.48-25.36-23.9-23.46-18.48 1.57 4.5 13.36 7.34 10.37 9.87-2.48 2.1-12.76-3-35.37-1.44-36.08 2.53-65.5 35.08-68.18 68.1-4.68-.22-9.1.92-12.3 4-7.74 7.36-4.3 22 1.17 30.22a35.89 35.89 0 0 0 18 13.53c4.93 13 34 32.5 63.7 31.63 26-.76 52-17.2 58.16-31.24a35.91 35.91 0 0 0 19-14.23c5.3-8.4 8.48-23.06.6-30.28zm145-357c-3.18-2.92-7.5-4-12.06-3.77-1.74-32.82-22.3-50.88-49.2-59.6 25.64 8.34 29.2 2.43 29.56 1.7 4.53-9.5-25.36-23.9-23.47-18.48 1.58 4.5 13.37 7.33 10.37 9.87-2.48 2.1-12.75-3-35.36-1.45-36.08 2.53-65.52 35.08-68.2 68.1-4.67-.22-9.1.93-12.28 4-7.74 7.35-4.32 22 1.17 30.22a35.93 35.93 0 0 0 18 13.52c4.93 13 33.95 32.5 63.7 31.63 26-.75 52-17.2 58.15-31.23a35.86 35.86 0 0 0 19-14.24c5.27-8.37 8.44-23.04.6-30.26zm-458.48-40c-3.18-2.92-7.5-4-12.06-3.77-1.73-32.82-22.3-50.88-49.2-59.6 25.63 8.34 29.2 2.43 29.56 1.7 4.53-9.5-25.37-23.9-23.47-18.48 1.57 4.5 13.36 7.33 10.37 9.87-2.48 2.1-12.76-3-35.37-1.45-36.08 2.53-65.5 35.08-68.18 68.1-4.68-.22-9.1.93-12.3 4-7.74 7.35-4.3 22 1.17 30.22a36 36 0 0 0 18 13.52c4.94 13 34 32.5 63.7 31.63 26-.75 52-17.2 58.16-31.23a35.84 35.84 0 0 0 19-14.24c5.3-8.37 8.47-23.04.6-30.26zM1577.64 453.8c-3.18-2.92-7.5-4-12.06-3.76-1.73-32.82-22.3-50.88-49.2-59.6 25.63 8.34 29.2 2.43 29.56 1.68 4.53-9.48-25.37-23.9-23.47-18.48 1.57 4.5 13.36 7.34 10.37 9.87-2.48 2.1-12.76-3-35.37-1.44-36.08 2.53-65.5 35.08-68.18 68.1-4.68-.22-9.1.92-12.3 4-7.74 7.36-4.3 22 1.17 30.22a35.89 35.89 0 0 0 18 13.53c4.94 13 34 32.5 63.7 31.63 26-.75 52-17.2 58.16-31.23A35.94 35.94 0 0 0 1577 484c5.34-8.3 8.5-23 .64-30.2zm873.62-85.7c-3.18-2.92-7.5-4-12.06-3.76-1.74-32.82-22.3-50.88-49.2-59.6 25.64 8.34 29.2 2.43 29.56 1.68 4.54-9.48-25.36-23.9-23.46-18.48 1.57 4.5 13.36 7.34 10.37 9.87-2.48 2.1-12.76-3-35.37-1.44-36.08 2.53-65.5 35.08-68.18 68.1-4.68-.22-9.1.92-12.3 4-7.74 7.36-4.3 22 1.17 30.22a35.89 35.89 0 0 0 18 13.53c4.93 13 34 32.5 63.7 31.63 26-.76 52-17.2 58.16-31.23a36 36 0 0 0 19-14.24c5.34-8.4 8.47-23.06.6-30.28zm388.9 159.9c-3.18-2.92-7.5-4-12.06-3.77-1.73-32.82-22.3-50.88-49.2-59.6 25.63 8.34 29.2 2.43 29.56 1.7 4.53-9.5-25.37-23.9-23.47-18.48 1.57 4.5 13.36 7.33 10.37 9.87-2.48 2.1-12.76-3-35.37-1.45-36.08 2.53-65.5 35.08-68.18 68.1-4.68-.22-9.1.93-12.3 4-7.74 7.35-4.3 22 1.17 30.22a36 36 0 0 0 18 13.52c4.94 13 34 32.5 63.7 31.63 26-.75 52-17.2 58.16-31.23a35.84 35.84 0 0 0 19-14.24c5.3-8.37 8.43-23.05.6-30.26zm-134.3-372.14c-3.18-2.92-7.5-4-12.06-3.77-1.73-32.82-22.3-50.88-49.2-59.6 25.63 8.34 29.2 2.43 29.56 1.7 4.53-9.5-25.37-23.9-23.47-18.48 1.57 4.5 13.36 7.33 10.37 9.87-2.48 2.1-12.76-3-35.36-1.45-36.1 2.53-65.52 35.08-68.2 68.1-4.68-.22-9.1.93-12.3 4-7.74 7.35-4.3 22 1.17 30.22a36 36 0 0 0 18 13.52c4.94 13 34 32.5 63.7 31.63 26-.75 52-17.2 58.16-31.23a35.84 35.84 0 0 0 19-14.24c5.3-8.37 8.47-23.04.6-30.26zm374.33 98.08c-3.18-2.92-7.5-4-12.06-3.76-1.74-32.82-22.3-50.88-49.2-59.6 25.64 8.34 29.2 2.43 29.56 1.68 4.53-9.48-25.36-23.9-23.47-18.48 1.58 4.5 13.37 7.34 10.37 9.87-2.48 2.1-12.75-3-35.36-1.44-36.08 2.53-65.52 35.08-68.18 68.1-4.68-.22-9.1.92-12.3 4-7.74 7.36-4.32 22 1.17 30.22a35.89 35.89 0 0 0 18 13.53c4.93 13 34 32.5 63.7 31.63 26-.76 52-17.2 58.15-31.24a35.9 35.9 0 0 0 19-14.23c5.3-8.38 8.48-23.06.6-30.28z"/><g opacity=".8"><path class="D" d="M98.27 345.32l7.9 6.15"/><path class="E" d="M121.66 363.55l178.26 139" stroke-dasharray="19.65999984741211px, 19.65999984741211px"/><path class="D" d="M307.67 508.58l7.9 6.15m388.95-234.1l4.13 9.1"/><path class="F" d="M717.67 309.56l67.6 148.76" stroke-dasharray="21.790000915527344px, 21.790000915527344px"/><path class="D" d="M789.77 468.24l4.14 9.1m366.42-127.7l-8.3 5.56"/><path class="G" d="M1136.2 365.77L954.13 487.45" stroke-dasharray="19.040000915527344px, 19.040000915527344px"/><path class="D" d="M946.22 492.74l-8.32 5.55m701.62-290.46l-3.55 9.35"/><path class="H" d="M1628.67 236.33L1574 379.98" stroke-dasharray="20.489999771118164px, 20.489999771118164px"/><path class="D" d="M1570.34 389.56l-3.55 9.34m16.3-332.6l-9.1-4.14"/><path class="I" d="M1555.07 53.6l-255.3-115.8" stroke-dasharray="20.770000457763672px, 20.770000457763672px"/><path class="D" d="M2691.8 595.52l-8.12 5.85"/><path class="J" d="M2667.93 612.7l-275.8 198.52" stroke-dasharray="19.420000076293945px, 19.420000076293945px"/><path class="D" d="M2823.18 598l7.54 6.57"/><path class="K" d="M2845.37 617.36l197.74 172.5" stroke-dasharray="19.440000534057617px, 19.440000534057617px"/><path class="D" d="M2081.38 238.8l-4.34 9"/><path class="L" d="M2068.45 265.66l-64.4 133.92" stroke-dasharray="19.809999465942383px, 19.809999465942383px"/><path class="D" d="M1999.76 408.5l-4.33 9m188.02-189.1l8.14 5.8"/><path class="M" d="M2206 244.5l79.3 56.66" stroke-dasharray="17.719999313354492px, 17.719999313354492px"/><path class="D" d="M2292.5 306.32l8.13 5.82m338.87-57.8l3.52 9.36"/><path class="N" d="M2650.13 282.68l53.4 142.3" stroke-dasharray="20.270000457763672px, 20.270000457763672px"/><path class="D" d="M2707.1 434.48l3.5 9.36m15.62-250.3l9.85 1.73"/><path class="O" d="M2754.62 198.54l139.1 24.43" stroke-dasharray="18.829999923706055px, 18.829999923706055px"/><path class="D" d="M2903 224.6l9.85 1.73m-2798.32 3.83l9.82-1.93"/><path class="P k" d="M144.98 224.17l154.75-30.47"/><path class="D" d="M310.05 191.67l9.8-1.94"/></g><path class="Q" d="M94.74 52.7A7.73 7.73 0 0 0 89 50.9c-.83-15.63-10.63-24.24-23.44-28.4 12.22 4 13.92 1.16 14.08.8 2.16-4.5-12.08-11.38-11.18-8.8.75 2.14 6.37 3.5 4.94 4.7-1.18 1-6.07-1.44-16.85-.7-17.2 1.2-31.22 16.72-32.5 32.5a7.77 7.77 0 0 0-5.86 1.88c-3.7 3.5-2.05 10.47.56 14.4a17.06 17.06 0 0 0 8.57 6.45c2.35 6.2 16.18 15.48 30.35 15.07 12.4-.36 24.78-8.2 27.7-14.88a17.14 17.14 0 0 0 9-6.79c2.6-4 4.1-11 .35-14.43zm820.92-37.42a7.7 7.7 0 0 0-5.75-1.8c-.83-15.64-10.63-24.24-23.44-28.4 12.2 4 13.9 1.16 14.08.8 2.16-4.52-12.08-11.38-11.18-8.8.75 2.14 6.37 3.5 4.94 4.7-1.18 1-6.08-1.45-16.85-.7-17.2 1.2-31.2 16.72-32.46 32.45a7.77 7.77 0 0 0-5.85 1.89c-3.7 3.5-2.06 10.47.56 14.4a17 17 0 0 0 8.57 6.44c2.35 6.2 16.18 15.5 30.35 15.08 12.4-.36 24.78-8.2 27.7-14.9a17.07 17.07 0 0 0 9-6.78c2.55-3.97 4.06-10.96.32-14.4zM247.1 621.5a7.66 7.66 0 0 0-5.74-1.79c-.83-15.64-10.63-24.24-23.45-28.4 12.22 4 13.92 1.15 14.1.8 2.16-4.52-12.1-11.38-11.18-8.8.75 2.15 6.37 3.5 4.94 4.7-1.18 1-6.08-1.45-16.85-.7-17.2 1.2-31.22 16.7-32.5 32.45a7.79 7.79 0 0 0-5.86 1.89c-3.68 3.5-2.05 10.47.56 14.4a17.11 17.11 0 0 0 8.58 6.44c2.3 6.2 16.17 15.5 30.3 15.07 12.4-.35 24.78-8.2 27.7-14.88a17.1 17.1 0 0 0 9-6.78c2.62-3.98 4.13-10.97.38-14.4zm13.3-518.65a7.73 7.73 0 0 0-5.75-1.79c-.83-15.64-10.63-24.24-23.44-28.4 12.22 4 13.92 1.16 14.1.8 2.15-4.52-12.1-11.38-11.2-8.8.75 2.14 6.37 3.5 4.94 4.7-1.18 1-6.07-1.45-16.85-.7-17.2 1.2-31.2 16.72-32.48 32.45a7.78 7.78 0 0 0-5.86 1.89c-3.7 3.5-2.05 10.47.56 14.4a17 17 0 0 0 8.57 6.44c2.35 6.2 16.18 15.48 30.35 15.07 12.4-.35 24.78-8.2 27.7-14.88a17.07 17.07 0 0 0 9-6.78c2.58-3.97 4.1-10.97.35-14.4zm776.3 45.25a7.68 7.68 0 0 0-5.75-1.79c-.83-15.64-10.62-24.25-23.44-28.4 12.22 4 13.92 1.15 14.1.8 2.15-4.52-12.1-11.4-11.2-8.8.75 2.14 6.37 3.5 4.94 4.7-1.18 1-6.07-1.44-16.84-.68-17.2 1.2-31.22 16.7-32.5 32.45a7.74 7.74 0 0 0-5.86 1.89c-3.7 3.5-2 10.47.56 14.4a17.14 17.14 0 0 0 8.57 6.44c2.35 6.2 16.18 15.48 30.35 15.07 12.4-.36 24.78-8.2 27.7-14.88a17 17 0 0 0 9-6.78c2.6-3.98 4.1-10.97.35-14.4zm291.6 451.23a7.68 7.68 0 0 0-5.75-1.79c-.83-15.64-10.62-24.25-23.44-28.4 12.22 4 13.92 1.15 14.1.8 2.15-4.52-12.1-11.4-11.2-8.8.75 2.15 6.37 3.5 4.94 4.7-1.18 1-6.07-1.45-16.84-.7-17.2 1.2-31.22 16.7-32.5 32.45a7.78 7.78 0 0 0-5.86 1.89c-3.7 3.5-2 10.47.56 14.4a17.14 17.14 0 0 0 8.57 6.44c2.35 6.2 16.18 15.48 30.35 15.07 12.4-.36 24.78-8.2 27.7-14.88a17 17 0 0 0 9-6.78c2.6-3.98 4.1-10.97.35-14.4zm153.14-410.03a7.68 7.68 0 0 0-5.75-1.79c-.83-15.64-10.62-24.25-23.44-28.4 12.22 4 13.92 1.15 14.1.8 2.16-4.52-12.1-11.4-11.2-8.8.75 2.14 6.37 3.5 4.95 4.7-1.2 1-6.08-1.45-16.85-.7-17.2 1.2-31.22 16.7-32.5 32.45a7.74 7.74 0 0 0-5.86 1.89c-3.68 3.5-2.05 10.47.56 14.4a17.14 17.14 0 0 0 8.57 6.44c2.35 6.2 16.18 15.48 30.35 15.07 12.4-.36 24.78-8.2 27.7-14.88a17 17 0 0 0 9-6.78c2.6-3.98 4.1-10.97.35-14.4zm408.08 0a7.66 7.66 0 0 0-5.74-1.79c-.83-15.64-10.63-24.25-23.44-28.4 12.2 4 13.9 1.15 14.08.8 2.16-4.52-12.08-11.4-11.18-8.8.75 2.14 6.37 3.5 4.94 4.7-1.18 1-6.08-1.45-16.85-.7-17.2 1.2-31.22 16.7-32.5 32.45a7.71 7.71 0 0 0-5.85 1.89c-3.7 3.5-2.06 10.47.56 14.4a17.1 17.1 0 0 0 8.57 6.44c2.35 6.2 16.18 15.48 30.35 15.07 12.4-.36 24.78-8.2 27.7-14.88a17.1 17.1 0 0 0 9-6.78c2.58-3.98 4.1-10.97.34-14.4zm89.03-166.57a7.68 7.68 0 0 0-5.75-1.79c-.8-15.64-10.63-24.24-23.44-28.4 12.22 4 13.92 1.15 14.1.8 2.15-4.52-12.1-11.4-11.2-8.8.75 2.15 6.37 3.5 4.94 4.7-1.18 1-6.07-1.45-16.85-.7-17.2 1.2-31.2 16.7-32.48 32.45a7.78 7.78 0 0 0-5.86 1.89c-3.7 3.5-2 10.47.56 14.4a17.1 17.1 0 0 0 8.57 6.44c2.35 6.2 16.18 15.48 30.35 15.07 12.4-.36 24.78-8.2 27.7-14.88a17.07 17.07 0 0 0 9-6.78c2.58-3.98 4.1-10.97.35-14.4zm-308.4 587.7a7.75 7.75 0 0 0-5.75-1.8c-.83-15.63-10.63-24.24-23.44-28.4 12.2 4 13.9 1.16 14.08.8 2.16-4.5-12.08-11.38-11.18-8.8.75 2.14 6.37 3.5 4.94 4.7-1.18 1-6.08-1.44-16.85-.7-17.2 1.2-31.22 16.72-32.5 32.46a7.75 7.75 0 0 0-5.85 1.88c-3.7 3.5-2.06 10.47.56 14.4a17.06 17.06 0 0 0 8.57 6.45c2.35 6.2 16.18 15.48 30.35 15.07 12.4-.36 24.78-8.2 27.7-14.88a17.14 17.14 0 0 0 9-6.79c2.58-3.97 4.1-10.96.35-14.4zM1174.8 500.77a7.67 7.67 0 0 0-5.74-1.8c-.83-15.64-10.63-24.24-23.45-28.4 12.22 4 13.92 1.16 14.1.8 2.16-4.52-12.1-11.38-11.18-8.8.75 2.14 6.36 3.5 4.94 4.7-1.18 1-6.08-1.45-16.85-.7-17.2 1.2-31.22 16.72-32.5 32.46a7.78 7.78 0 0 0-5.86 1.88c-3.68 3.5-2 10.47.56 14.4a17.2 17.2 0 0 0 8.57 6.45c2.36 6.2 16.18 15.48 30.36 15.07 12.4-.36 24.78-8.2 27.7-14.88a17.17 17.17 0 0 0 9-6.79c2.54-3.97 4.1-10.96.34-14.4zM1275 73.27a7.67 7.67 0 0 0-5.74-1.8c-.83-15.64-10.63-24.24-23.44-28.4 12.2 4 13.9 1.16 14.08.8 2.16-4.52-12.1-11.38-11.18-8.8.75 2.14 6.37 3.5 4.94 4.7-1.18 1-6.08-1.45-16.85-.7-17.2 1.2-31.22 16.72-32.5 32.46a7.71 7.71 0 0 0-5.85 1.88c-3.7 3.5-2.06 10.47.55 14.4a17.19 17.19 0 0 0 8.58 6.45c2.35 6.2 16.17 15.48 30.35 15.07 12.4-.36 24.78-8.2 27.7-14.88a17.17 17.17 0 0 0 9-6.79c2.6-3.97 4.1-10.96.34-14.4zm559.8 401.17a7.73 7.73 0 0 0-5.75-1.79c-.83-15.64-10.63-24.24-23.44-28.4 12.2 4 13.92 1.16 14.08.8 2.16-4.52-12.08-11.38-11.18-8.8.75 2.14 6.37 3.5 4.94 4.7-1.18 1-6.07-1.45-16.85-.7-17.2 1.2-31.2 16.72-32.48 32.45a7.78 7.78 0 0 0-5.86 1.89c-3.7 3.5-2 10.47.56 14.4a17 17 0 0 0 8.57 6.44c2.35 6.2 16.18 15.48 30.35 15.07 12.4-.35 24.78-8.2 27.7-14.88a17.07 17.07 0 0 0 9-6.78c2.54-3.97 4.1-10.97.35-14.4zm618.94 100.6a7.68 7.68 0 0 0-5.75-1.79c-.83-15.64-10.62-24.25-23.44-28.4 12.22 4 13.92 1.16 14.1.8 2.15-4.52-12.1-11.4-11.2-8.8.75 2.14 6.37 3.5 4.94 4.7-1.18 1-6.07-1.44-16.84-.7-17.2 1.2-31.22 16.72-32.5 32.46a7.74 7.74 0 0 0-5.86 1.89c-3.7 3.5-2 10.47.56 14.4a17.14 17.14 0 0 0 8.57 6.44c2.35 6.2 16.18 15.48 30.35 15.07 12.4-.36 24.78-8.2 27.7-14.88a17 17 0 0 0 9-6.78c2.6-3.98 4.1-10.97.35-14.4zm-75.06-412.34a7.73 7.73 0 0 0-5.75-1.8c-.83-15.63-10.62-24.24-23.44-28.4 12.22 4 13.92 1.16 14.1.8 2.16-4.5-12.1-11.38-11.2-8.8.75 2.14 6.37 3.5 5 4.7-1.2 1-6.08-1.44-16.85-.7-17.2 1.2-31.22 16.72-32.5 32.46a7.75 7.75 0 0 0-5.86 1.89c-3.68 3.5-2 10.46.56 14.4a17.11 17.11 0 0 0 8.57 6.45c2.35 6.2 16.18 15.48 30.35 15.07 12.4-.36 24.78-8.2 27.7-14.88a17.1 17.1 0 0 0 9-6.79c2.54-3.97 4.05-10.96.3-14.4zm-148.35 354.17a7.7 7.7 0 0 0-5.75-1.79c-.83-15.64-10.63-24.25-23.44-28.4 12.2 4 13.9 1.16 14.08.8 2.16-4.52-12.08-11.4-11.18-8.8.75 2.14 6.37 3.5 4.94 4.7-1.18 1-6.07-1.44-16.85-.7-17.2 1.2-31.2 16.72-32.48 32.46a7.74 7.74 0 0 0-5.86 1.89c-3.7 3.5-2.05 10.47.56 14.4a17.1 17.1 0 0 0 8.57 6.44c2.35 6.2 16.18 15.48 30.35 15.07 12.4-.36 24.78-8.2 27.7-14.88a17.07 17.07 0 0 0 9-6.78c2.58-3.98 4.1-10.97.35-14.4zm279.33-453.2a7.66 7.66 0 0 0-5.74-1.79c-.83-15.64-10.63-24.24-23.45-28.4 12.22 4 13.92 1.15 14.1.8 2.16-4.52-12.1-11.4-11.18-8.8.75 2.15 6.36 3.5 4.94 4.7-1.18 1-6.08-1.45-16.85-.7-17.2 1.2-31.22 16.7-32.5 32.45a7.79 7.79 0 0 0-5.86 1.89c-3.68 3.5-2 10.47.56 14.4a17.19 17.19 0 0 0 8.57 6.44c2.36 6.2 16.18 15.48 30.36 15.07 12.4-.36 24.78-8.2 27.7-14.88a17.1 17.1 0 0 0 9-6.78c2.58-3.98 4.1-10.97.34-14.4zm348.1 13.88a7.71 7.71 0 0 0-5.74-1.8c-.83-15.64-10.63-24.24-23.44-28.4 12.2 4 13.9 1.16 14.08.8 2.16-4.52-12.1-11.38-11.18-8.8.75 2.14 6.37 3.5 4.94 4.7-1.18 1-6.08-1.45-16.85-.7-17.2 1.2-31.22 16.72-32.5 32.46a7.75 7.75 0 0 0-5.85 1.88c-3.7 3.5-2.06 10.47.55 14.4a17.19 17.19 0 0 0 8.58 6.45c2.35 6.2 16.17 15.48 30.35 15.07 12.4-.36 24.78-8.2 27.7-14.88a17.17 17.17 0 0 0 9-6.79c2.6-3.94 4.1-10.94.34-14.4zm55.04 296.6a7.7 7.7 0 0 0-5.75-1.79c-.83-15.64-10.63-24.24-23.44-28.4 12.2 4 13.9 1.15 14.08.8 2.16-4.52-12.08-11.4-11.18-8.8.75 2.15 6.37 3.5 4.94 4.7-1.18 1-6.07-1.45-16.85-.7-17.2 1.2-31.2 16.7-32.5 32.45a7.77 7.77 0 0 0-5.85 1.89c-3.7 3.5-2.06 10.47.56 14.4a17.1 17.1 0 0 0 8.57 6.44c2.35 6.2 16.18 15.48 30.35 15.07 12.4-.36 24.78-8.2 27.7-14.88a17.07 17.07 0 0 0 9-6.78c2.54-3.98 4.1-10.97.35-14.4zm114.34-351.4a7.67 7.67 0 0 0-5.74-1.8c-.83-15.64-10.63-24.24-23.4-28.4 12.22 4 13.92 1.16 14.1.8 2.16-4.52-12.1-11.38-11.18-8.8.75 2.14 6.37 3.5 4.94 4.7-1.18 1-6.08-1.45-16.85-.7-17.2 1.2-31.22 16.72-32.5 32.46a7.78 7.78 0 0 0-5.86 1.88c-3.68 3.5-2 10.47.56 14.4a17.19 17.19 0 0 0 8.58 6.45c2.35 6.2 16.17 15.48 30.35 15.07 12.4-.36 24.78-8.2 27.7-14.88a17.17 17.17 0 0 0 9-6.79c2.53-3.97 4.04-10.96.3-14.4zM2249.4 682.3a7.68 7.68 0 0 0-5.75-1.79c-.83-15.64-10.62-24.24-23.44-28.4 12.22 4 13.92 1.15 14.1.8 2.15-4.52-12.1-11.38-11.2-8.8.75 2.15 6.37 3.5 4.94 4.7-1.18 1-6.07-1.45-16.84-.7-17.2 1.2-31.22 16.7-32.5 32.45a7.78 7.78 0 0 0-5.86 1.89c-3.7 3.5-2 10.47.56 14.4a17.09 17.09 0 0 0 8.57 6.44c2.35 6.2 16.18 15.48 30.35 15.07 12.4-.36 24.78-8.2 27.7-14.88a17 17 0 0 0 9-6.78c2.6-3.98 4.1-10.97.35-14.4zM915.66 269.62a7.7 7.7 0 0 0-5.75-1.8c-.83-15.64-10.63-24.24-23.44-28.4 12.2 4 13.9 1.16 14.08.8 2.16-4.52-12.08-11.38-11.18-8.8.75 2.14 6.37 3.5 4.94 4.7-1.18 1-6.08-1.45-16.85-.7-17.2 1.2-31.2 16.72-32.5 32.45a7.77 7.77 0 0 0-5.85 1.89c-3.7 3.5-2.06 10.47.56 14.4a17 17 0 0 0 8.57 6.44c2.35 6.2 16.18 15.5 30.35 15.08 12.4-.36 24.78-8.2 27.7-14.9a17.07 17.07 0 0 0 9-6.78c2.58-3.97 4.1-10.96.35-14.4zm218.67 412.83a7.73 7.73 0 0 0-5.75-1.8c-.82-15.64-10.62-24.24-23.44-28.4 12.22 4 13.92 1.16 14.1.8 2.16-4.52-12.1-11.38-11.2-8.8.75 2.14 6.37 3.5 5 4.7-1.2 1-6.08-1.45-16.85-.7-17.2 1.2-31.22 16.72-32.5 32.46a7.78 7.78 0 0 0-5.86 1.88c-3.68 3.5-2 10.47.56 14.4a17.2 17.2 0 0 0 8.57 6.45c2.35 6.2 16.18 15.48 30.35 15.07 12.4-.36 24.78-8.2 27.7-14.88a17.1 17.1 0 0 0 9-6.79c2.54-3.97 4.05-10.96.3-14.4zM395.4 323.92a7.71 7.71 0 0 0-5.74-1.8c-.83-15.64-10.63-24.24-23.45-28.4 12.22 4 13.92 1.16 14.1.8 2.16-4.52-12.1-11.38-11.18-8.8.75 2.14 6.37 3.5 4.94 4.7-1.18 1-6.08-1.45-16.85-.7-17.22 1.2-31.22 16.72-32.5 32.46a7.78 7.78 0 0 0-5.86 1.88c-3.68 3.5-2.05 10.47.56 14.4a17.13 17.13 0 0 0 8.58 6.45c2.35 6.2 16.17 15.48 30.35 15.07 12.4-.36 24.78-8.2 27.7-14.88a17.17 17.17 0 0 0 9-6.79c2.58-3.97 4.1-10.96.34-14.4zM608.5 385a7.67 7.67 0 0 0-5.74-1.8c-.83-15.64-10.63-24.24-23.44-28.4 12.2 4 13.9 1.16 14.08.8 2.16-4.52-12.1-11.38-11.18-8.8.75 2.14 6.37 3.5 4.94 4.7-1.18 1-6.08-1.45-16.85-.7-17.2 1.2-31.22 16.72-32.5 32.46a7.71 7.71 0 0 0-5.85 1.88c-3.7 3.5-2.06 10.47.55 14.4a17.19 17.19 0 0 0 8.58 6.45c2.35 6.2 16.17 15.48 30.35 15.07 12.4-.36 24.78-8.2 27.7-14.88a17.17 17.17 0 0 0 9-6.79c2.58-3.98 4.1-10.97.34-14.4zM107.74 519.52a7.73 7.73 0 0 0-5.75-1.8c-.83-15.63-10.63-24.24-23.44-28.4 12.22 4 13.92 1.16 14.08.8 2.16-4.5-12.08-11.38-11.18-8.8.75 2.14 6.37 3.5 4.94 4.7-1.18 1-6.07-1.44-16.85-.7-17.2 1.2-31.2 16.72-32.48 32.46a7.77 7.77 0 0 0-5.86 1.88c-3.7 3.5-2.05 10.47.56 14.4a17.06 17.06 0 0 0 8.57 6.45c2.35 6.2 16.18 15.48 30.35 15.07 12.4-.36 24.78-8.2 27.7-14.88a17.14 17.14 0 0 0 9-6.79c2.6-3.92 4.1-10.92.35-14.4z"/><path class="R" d="M103.92 77.17l9.87 1.6"/><path class="S" d="M131.72 81.67l26.88 4.35" stroke-dasharray="18.15999984741211px, 18.15999984741211px"/><path class="R" d="M167.56 87.48l9.87 1.6M100.7 554.63l8.32 5.56"/><path class="T" d="M126.04 571.56l25.54 17.06" stroke-dasharray="20.469999313354492px, 20.469999313354492px"/><path class="R" d="M160.1 594.3l8.3 5.55M405.93 347l9.78 2.1"/><path class="U" d="M435.15 353.25l68.06 14.56" stroke-dasharray="19.8799991607666px, 19.8799991607666px"/><path class="R" d="M512.93 369.88l9.78 2.1"/><path class="V" d="M141.46 705.2l21.5-31.2" stroke-dasharray="25.260000228881836px, 25.260000228881836px"/><path class="R" d="M170.13 663.6l5.68-8.24"/><path class="W" d="M195.6 2.8l5.22 36.74" stroke-dasharray="24.739999771118164px, 24.739999771118164px"/><path class="R" d="M202.56 51.78l1.4 9.9m697.9-5.75l7.12 7.02"/><path class="X" d="M924.97 78.7l23.96 23.6" stroke-dasharray="22.43000030517578px, 22.43000030517578px"/><path class="R" d="M956.92 110.17l7.12 7.02m209.16 415.83l8.62 5.05"/><path class="Y" d="M1201.54 549.62l29.58 17.33" stroke-dasharray="22.850000381469727px, 22.850000381469727px"/><path class="R" d="M1240.98 572.72l8.63 5.06m22.5-473.98l9.03 4.3"/><path class="Z" d="M1297.5 115.9l89.95 42.9" stroke-dasharray="18.1200008392334px, 18.1200008392334px"/><path class="R" d="M1395.62 162.7l9.02 4.3m482.06-1.77l3.57-9.34"/><path class="a" d="M1896.2 140.43l20.66-54.1" stroke-dasharray="16.549999237060547px, 16.549999237060547px"/><path class="R" d="M1919.8 78.6l3.56-9.34M1667.3 586l7.75-6.33"/><path class="b" d="M1690.58 567.02l54.3-44.3" stroke-dasharray="20.030000686645508px, 20.030000686645508px"/><path class="R" d="M1752.65 516.38l7.75-6.32m491.24 150.78l9.3-3.65"/><path class="c" d="M2277.26 650.8l89.7-35.13" stroke-dasharray="17.510000228881836px, 17.510000228881836px"/><path class="R" d="M2375.1 612.48l9.3-3.64M2203 632.6l-1.74-9.85"/><path class="d" d="M2198.3 605.87l-4.47-25.34" stroke-dasharray="17.149999618530273px, 17.149999618530273px"/><path class="R" d="M2192.33 572.1l-1.74-9.85m249.7-462.5l-8.06 5.9"/><path class="e" d="M2417.82 116.24l-21.62 15.87" stroke-dasharray="17.8799991607666px, 17.8799991607666px"/><path class="R" d="M2389 137.4l-8.06 5.9m569.23-94.25l-9.9 1.44"/><path class="f" d="M2915.96 54.02l-36.48 5.3" stroke-dasharray="24.56999969482422px, 24.56999969482422px"/><path class="R" d="M2867.33 61.08l-9.9 1.43"/><path class="g" d="M3013.95 525.83l-92.63-98.9" stroke-dasharray="18.06999969482422px, 18.06999969482422px"/><path class="R" d="M2915.15 420.33l-6.84-7.3M2789.74 49.05l-8.13-5.83"/><path class="h k" d="M2764.52 30.97l-59.83-42.9"/><path class="R" d="M1121.85 543.44l-2.04 9.8"/><path class="i" d="M1114.8 577.36l-7.52 36.2" stroke-dasharray="24.649999618530273px, 24.649999618530273px"/><path class="R" d="M1104.78 625.62l-2.03 9.8m-190.9-390.47l7.1-7.05"/><path class="j" d="M934.1 222.84l22.76-22.6" stroke-dasharray="21.3799991607666px, 21.3799991607666px"/><path class="R" d="M964.44 192.7l7.1-7.05"/></svg>