<svg xmlns="http://www.w3.org/2000/svg" width="3000" height="700"><style><![CDATA[.C{fill:#4dba4a}.D{fill:#51b74b}.E{fill:#4fb247}]]></style><path d="M0 0h3000v700H0z" fill="#4cbf4b"/><path d="M808.83 208.78c-.48 8.67-.9 25.83-1.28 49L806 438.66l-.17 43.9.9 217.43h16l-.87-224.08v-37.58l-.6-197.42-.6-33.64 5.9 1.63c26.7 6.75 54.18 5.9 65.08 6.32-4.13-14.65-38.84-28.24-47-30.47 16.58-13.15 41.6-38.92 47-56.06-31.6-1.9-55.8 18.56-70.08 37.6 4.54-20 5.86-45-6-59-2.4 3.83-5.62 12.3-8.4 22.66a177.71 177.71 0 0 0-5.09 27.16c-7-9.34-15.9-18.45-26.6-25.15a66.85 66.85 0 0 0-37.46-10.62 69.74 69.74 0 0 0 7.68 18.54 141.2 141.2 0 0 0 14.4 20.45c-13.8-3.3-27.4-3.9-37.18 1.26 5.83 5.67 28.75 18 51.4 25.2-20.8 1.7-43.07 7.3-52.64 20.4 7.15 2.35 30 3.38 52 .75-16 7.73-31.5 19.17-35.63 33.82 11.96-.5 53.85-14.2 70.8-32.97zM1893 7.74c-22.1.82-37.48 14-32.78 23.47 3.08 6.2 43.9.76 50-10.08L1873.83 700h7.07l40.72-677.6c1.74 16.66 51.55 16.18 55.87 12.47 17.85-15.35-29.3-26.42-40.63-27.84 3.1-.1 29.83.54 40.6-7h-122.9c6.22 7.12 24.84 7.8 38.43 7.72zM0 370v330h133.2c17.07-24.84 33.34-50.26 48.6-76.23q11.23-19.1 21.7-38.62c31.37-58.48 57.22-119.45 75.17-182.3l1.26-4.46 1.4-5.08c3.7.1 7.5.12 11.4 0 36-.94 80.4-10.9 121.92-26.84 40.65-15.6 78.55-37 103.08-61.14 15.3-15.1 32.63-80 49.23-167.77C574.83 95.9 582.55 49.1 589.8 0h-53.24c-9.1 47.76-19.12 92.37-30.18 130.4-12.8 44-27 79.25-42.73 100.33-11.2 15-35.38 27.92-62 37.18-29.6 10.3-62.2 16-83.12 15-6.18-.3-11.34-1.22-15.12-2.77 7.82-33.6 18.5-92.83 28.35-153.8L350.55 0h-190.8c-10.75 59.5-22.68 114.76-35.8 160.94-13.8 48.5-28.87 87-45.15 109.74C60.16 296.73 32.85 331.17 0 370zm2411.35-215.74c7.78 9.88 29.4 9.55 49.78 8.14-41.46 6-50.57 33.76-44.94 41.5 6.25 8.6 17.34 10.78 26.86 5s25.3-24.83 38.72-34.35c-13.1 10.3-49.5 64-24.82 72 22 7.1 44.83-58.58 53.1-75.76V700h9.8V177.33c4.26 25.34 17.4 82.24 46.56 66.36 33.82-18.4-11.43-52.55-19.6-61.75 23.18 9.58 37 37.28 57 13.24 23.1-27.77-47.4-37.65-64.88-38.74 5.34-.53 57.06-2.46 66.26-20.17 1.8-3.5 2-7.62-.22-12.46-12.57-27.8-60.56 1.8-77.55 16-1 .8-1.8 1.55-2.54 2.23.6-.63 1.2-1.36 1.84-2.17 13.58-17.13 38.43-71.57 11.6-79.17-28.1-8-32.63 46.2-33.57 65.1.94-27.16-22.48-71.66-43.1-57.45-20 13.78 18.2 61.2 28.9 75l.9 1.18-1.82-1.07c-25.3-14.5-77.72-27.5-81.08-1.58-.72 5.3.36 9.33 2.77 12.38zM988 700h71.24c4-6.72 6-13.32 4.1-15.94-3.55-4.77-23 .05-33.46 9.05q-.08-6.7-.1-13.3c15.58 9.8 38.77-25.48 33.8-32.47-3.48-4.8-23.13.1-33.76 9.16q0-6.8.13-13.5c15.4 10.15 39.4-25.34 34.52-32.35-3.4-4.82-23.4.16-34.13 9.34q.15-7 .33-13.85c15.2 10.68 40.12-25.13 35.35-32.16-3.36-4.87-23.82.26-34.63 9.6q.25-7.32.55-14.4c15 11.52 41-24.77 36.28-31.85-3.32-4.93-24.43.4-35.3 10q.4-7.8.8-15.2c14.62 12.77 42-24.24 37.36-31.4-3.3-5-25.35.64-36.16 10.62q.52-8.58 1.06-16.47c14.16 14.64 43.17-23.42 38.62-30.67-3.3-5.17-26.7 1-37.3 11.5l1.34-18.5c13.43 17.6 44.68-22.06 40.15-29.47-3.37-5.4-29 1.6-39 13 .93-13.55 1.23-20.95.34-20.9-.67 0-2.4 7.08-4.64 20-8.06-10.24-30.77-15.26-35.4-9.78-6.5 7.6 15.25 44.22 32.48 28.32l-2.25 16.58c-9.08-9.33-30-13.68-34.37-8.44-6.2 7.44 15.07 42.7 31.86 29.37q-.8 7.15-1.58 14.87c-8.4-7.74-24.83-11.76-31.54-9.2a5.2 5.2 0 0 0-2.21 1.49c-2.06 2.52-.9 8.24 2.16 14.2 5.86 11.34 18.7 23.5 29.5 15.78q-.6 6.75-1.15 13.84c-7.65-6.54-20.9-10.26-28.42-9.35-2.25.27-4 1-4.9 2.12-2.47 3.1 0 11 4.82 18.2 6.55 9.75 17.52 18.3 26.82 12.18q-.42 6.45-.8 13.12c-7.14-5.77-18.56-9.25-26.1-9.12-3.24 0-5.76.76-6.9 2.25-2.66 3.43.76 12.7 6.8 20.48 6.7 8.6 16.6 15.36 25 10.2q-.27 6.2-.5 12.58c-6.83-5.27-17.18-8.57-24.55-8.84-3.9-.15-7 .55-8.22 2.25-2.73 3.6 1.35 13.62 8.08 21.6s16.07 13.88 23.94 9.3q-.15 6-.25 12.2a48.33 48.33 0 0 0-23.78-8.6c-4.2-.26-7.54.42-8.84 2.2-2.7 3.63 1.67 13.83 8.66 21.84 6.78 7.8 16 13.52 23.7 9.18q0 6 0 12a49.43 49.43 0 0 0-23.82-8.5c-4.2-.24-7.47.44-8.74 2.22-1.74 2.5-.27 7.9 3.02 13.6zm553.28-502.94c-1.27 22.77-2.24 74.36-2.9 136.7l-.84 119.08v6.46l-.24 124-.14 116.72h19.73l.98-263.05-.06-106.17-1.43-135.6c22.1 23.18 73.62 40 88.43 40.54-5.22-18.54-24.77-33-45-42.8 27 6.25 54.36 8.33 63.17 5.45-9.2-28.22-36.2-39.07-62.5-41.88 21-16.65 38.9-39.12 45.8-60.8-40-2.4-70.66 23.48-88.74 47.6 5.75-25.26 7.4-57-7.55-74.75-5.44 8.73-14.36 36.47-17.07 63.08-17.7-23.65-45.08-46.15-81.1-45.3 3.24 14.48 13.9 32.63 28 49.37-17.5-4.2-34.7-4.93-47.1 1.6 7.38 7.18 36.4 22.78 65.08 31.9-26.34 2.17-54.54 9.24-66.65 25.83 9.06 3 38 4.27 65.8 1-20.3 9.78-39.87 24.26-45.1 42.82 14.93-.67 67.96-18 89.4-41.8zM2204.48 700H2280q.54-13.32 1.2-28.28l1.86-42.7 18.88-362.42 4.47-72.6q.72-11.46 1.46-22.95 1.8-27.84 3.7-55.72l8.27-115.3h-43.43l-18.68 178q-2.28 22-4.57 43.82l-7.9 75.8q-1.27 12.35-2.54 24.57l-30.22 295.4-4.37 44.32q-.36 3.57-.7 7.05-1.56 16.07-2.92 30.28c.02.25 0 .5-.02.74zm-255.24-3l-.13 3h73.48l5.16-140.46q.3-7.46.58-15 1-25.57 2.1-51.94l8.23-184.34q1.23-25.32 2.52-50.54c0-1 .1-2.07.16-3.1l3.88-72.48 4.67-79.6L2056.78 0h-44.3l-14.88 147.85q-1.47 14.55-2.9 28.94-1 10.1-2 20.1l-6.9 68.33q-2 20.3-4 40l-16.7 164.36c-11.5-5.22-20.26-8.74-26.35-13.42-7.13 3.45-9.16 9.17-9.4 18 6.6 15.55 31.6 36.24 31.15 40.85v.2c-2.5 24.76-4.78 57.45-6.85 93.48l-.37 6.45q-.7 12.4-1.35 25.23-.45 8.67-.87 17.47-.16 3.27-.32 6.55l-1.5 32.62zM3000 0h-330.56c26.75 31.6 49.1 50.5 59.35 55.5.3 7.1 2.93 38.67 7.06 85.17l14.82 162 14.57 153.3q1 10.6 2.05 21.15 1.07 10.88 2.1 21.68l17.8 176.5q1.33 12.78 2.62 24.67H3000zM1604.82 700h103.32c11.94-106 47.53-324.28 89-552.62l24.82-134.06 2.52-13.35H1725l-20.76 133.26-75.72 450.68-23.7 116.1zM1128.2 169.6l-2.3 530.4h222.6c-.6-48.6 1.3-100.82 4.52-152 9.58-152.33 31-295.66 33.7-307.56-5.1-6.37-23.7-24.7-32-31-5.74 13.38-24.28 53.83-44.37 71.56-.92-5.23-3.34-62.66-6.4-144.76L1299 .06h-171.15l.35 169.53z" opacity=".5" class="C"/><path class="C" d="M2059 506.4c-6.4-5.87-15.08-8.06-24.26-7.57-3.5-66-44.85-102.33-98.94-119.88 51.56 16.76 58.73 4.88 59.45 3.38 9.1-19.07-51-48.05-47.2-37.16 3.16 9 26.88 14.75 20.86 19.85-5 4.22-25.65-6.1-71.12-2.92-72.57 5.1-131.77 70.56-137.14 137-9.4-.45-18.28 1.85-24.7 8-15.56 14.8-8.67 44.2 2.35 60.78 8.38 12.6 22.3 22.6 36.2 27.2 6.4 16.9 33.06 39.25 67.26 52.48-8.4 12.2-12.78 25.38-12.74 38.26v.9a15.33 15.33 0 0 0-.84 2.39 16.53 16.53 0 0 0-.3 6.23 21.41 21.41 0 0 0 2.16 6.84 13.47 13.47 0 0 0 7.21 6.9 10.32 10.32 0 0 0 11.83-15.9 10.29 10.29 0 0 0-1.4-9.27 13.21 13.21 0 0 0-.82-1c.7-10.1 5.16-18.87 9.36-25-3.34 11.87-4.32 19.5-4.32 27.13 0 11.64 5.78 23.32 15 31.66a105.73 105.73 0 0 0-1.9 14.57 53.7 53.7 0 0 0-9.55 1.8 9.61 9.61 0 1 0 5.38 18.45c7.67-2.23 17.08-1.34 21 0a9.75 9.75 0 0 0 3 .49 9.61 9.61 0 0 0 6.94-16.25c0-.35.07-.7.1-1.06.08-2.2.25-4.26.48-6.23a40.79 40.79 0 0 0 5 .25 44.37 44.37 0 0 0 5.44-.37 80.22 80.22 0 0 1 .68 6.85v.6a9.61 9.61 0 0 0 10 15.72c3.94-1.3 13.36-2.2 21 0a9.27 9.27 0 0 0 2.69.39 9.61 9.61 0 0 0 2.68-18.84 53.58 53.58 0 0 0-9.62-1.81 105.36 105.36 0 0 0-2.21-14.76 46 46 0 0 0 3.48-3.5 43.87 43.87 0 0 0 5.27 1.12 28.86 28.86 0 0 0 4.21.33c4.3 0 7.75-1.14 10.32-3.4a11.39 11.39 0 0 0 1.37-1.42 9.73 9.73 0 0 0 1.43.1 10.35 10.35 0 0 0 3.76-.71c5.82-2.28 8.55-8.92 9.13-13.9a16.22 16.22 0 0 0-.41-6.22 13.49 13.49 0 0 0-1.54-3.9c0-.26.08-.52.1-.8a46.75 46.75 0 0 0-2.31-19 40 40 0 0 1 7.3-6.89c7.54-5.5 13.9-5.9 17.9-5.28a22.8 22.8 0 0 1 10.52 4.74 17.4 17.4 0 0 1 6.35 9.75 20.81 20.81 0 0 1-.49 10.09c-.75 2.36-2.3 5.4-5.42 6.53-5.4 1.94-11.54-3.23-11.6-3.28a3.56 3.56 0 0 0-4.62 5.42c.78.66 6.6 5.42 13.65 5.42a14.54 14.54 0 0 0 5-.86c4.58-1.64 8.06-5.58 9.8-11.08a27.9 27.9 0 0 0 .67-13.75 24.33 24.33 0 0 0-8.84-13.79 29.86 29.86 0 0 0-13.9-6.22 27.25 27.25 0 0 0-12.25 1 37.17 37.17 0 0 0-10.92 5.57 46.59 46.59 0 0 0-6 5.25 77.41 77.41 0 0 0-5.72-10.16c31.56-12.38 57.22-33.17 65.4-51.83 14.6-4.45 29.52-15.13 38.15-28.63 10.67-16.78 17.04-46.3 1.23-60.8zM1937.87 707a55.36 55.36 0 0 1-1.59-.28 40.94 40.94 0 0 0 6.61-21.76 121.41 121.41 0 0 0-2.78-26.21c5.33 8.43 8 16.9 7.28 23.68a8.9 8.9 0 0 0 0 1.15l-.28.38a10.3 10.3 0 0 0-1.24 9.29 10.31 10.31 0 0 0-1.27 9.86 10 10 0 0 0 1.69 2.85c-1.8 1.23-4.62 1.58-8.42 1.04z"/><path class="D" d="M241 467c-7.68-7.05-18.1-9.67-29.1-9.1C207.7 378.67 158 335.07 93.1 314c61.9 20.13 70.5 5.86 71.37 4.06 10.94-22.9-61.24-57.7-56.66-44.62 3.8 10.86 32.27 17.72 25 23.84-6 5.06-30.8-7.34-85.4-3.5-87.1 6.12-158.18 84.7-164.62 164.46-11.3-.54-22 2.23-29.68 9.57-18.68 17.76-10.4 53 2.83 73 10.06 15.13 26.8 27.12 43.44 32.65 7.7 20.3 39.7 47.12 80.76 63-10.07 14.66-15.36 30.48-15.3 45.94a9.77 9.77 0 0 0 .06 1.08 17 17 0 0 0-1 2.86 19.84 19.84 0 0 0-.36 7.49 25.83 25.83 0 0 0 2.62 8.17c2.13 4.15 5 6.94 8.66 8.28a12.43 12.43 0 0 0 4.32.79A12.42 12.42 0 0 0-9.22 703 12.38 12.38 0 0 0-11 691.19a12.32 12.32 0 0 0-1.69-11.12 10.45 10.45 0 0 0-1-1.2c.84-12.12 6.2-22.66 11.25-30.08-4 14.25-5.2 23.4-5.2 32.57 0 14 7 28 18 38a126.84 126.84 0 0 0-2.26 17.5A63.51 63.51 0 0 0-3.36 739a11.53 11.53 0 0 0-7.85 14.3 11.54 11.54 0 0 0 14.3 7.85c9.2-2.7 20.5-1.6 25.25 0a11.54 11.54 0 0 0 12-18.93c.05-.4.1-.84.1-1.26.1-2.64.3-5.12.6-7.48a50.88 50.88 0 0 0 5.95.3 56.22 56.22 0 0 0 6.53-.45c.37 2.57.65 5.3.82 8.22q0 .36.06.72a11.53 11.53 0 0 0 12 18.88c4.74-1.57 16-2.65 25.25 0a11.67 11.67 0 0 0 3.23.46A11.54 11.54 0 0 0 98.06 739a63.77 63.77 0 0 0-11.55-2.18 126.48 126.48 0 0 0-2.65-17.72 57 57 0 0 0 4.17-4.2 55.61 55.61 0 0 0 6.34 1.34 34.87 34.87 0 0 0 5 .39c5.15 0 9.3-1.36 12.4-4.06a14.49 14.49 0 0 0 1.64-1.7 13.9 13.9 0 0 0 1.71.12 12.37 12.37 0 0 0 4.52-.86c7-2.74 10.27-10.7 11-16.7a19.71 19.71 0 0 0-.49-7.48 16.5 16.5 0 0 0-2-4.57c.06-.3.1-.63.14-.95a56.23 56.23 0 0 0-2.78-22.78 48.29 48.29 0 0 1 8.76-8.28c9.06-6.58 16.68-7.08 21.5-6.33a27.52 27.52 0 0 1 12.63 5.68 21 21 0 0 1 7.62 11.74 25 25 0 0 1-.6 12.11c-.9 2.84-2.75 6.5-6.5 7.85-6.47 2.32-13.85-3.88-13.93-3.95a4.27 4.27 0 0 0-5.54 6.51c.93.8 7.94 6.5 16.38 6.5a17.55 17.55 0 0 0 6-1c5.5-2 9.66-6.7 11.76-13.3a33.52 33.52 0 0 0 .8-16.51 29.23 29.23 0 0 0-10.61-16.56 35.88 35.88 0 0 0-16.69-7.47 32.87 32.87 0 0 0-14.71 1.18 44.7 44.7 0 0 0-13.1 6.69 55.13 55.13 0 0 0-7.23 6.3 93.45 93.45 0 0 0-6.87-12.19c37.9-14.86 68.7-39.83 78.5-62.23 17.52-5.34 35.44-18.16 45.8-34.37C252.35 519.87 260 484.44 241 467zM95.6 707.82c-.62-.1-1.26-.2-1.92-.34a49 49 0 0 0 7.95-26.12 145.88 145.88 0 0 0-3.34-31.46c6.4 10.1 9.56 20.3 8.73 28.42a10.81 10.81 0 0 0 0 1.39q-.18.22-.33.45a12.36 12.36 0 0 0-1.5 11.16 12.34 12.34 0 0 0 .51 15.25c-2.17 1.5-5.54 1.9-10.1 1.25z"/><path class="C" d="M903 506.4c-6.4-5.87-15.08-8.06-24.25-7.57-3.5-66-44.86-102.33-99-119.88 51.56 16.76 58.74 4.88 59.45 3.38 9.12-19.07-51-48.05-47.2-37.16 3.17 9 26.88 14.75 20.86 19.85-5 4.22-25.65-6.1-71.12-2.92-72.57 5.1-131.77 70.56-137.13 137-9.4-.45-18.3 1.85-24.72 8-15.56 14.8-8.67 44.2 2.35 60.78 8.38 12.6 22.32 22.6 36.2 27.2 6.4 16.9 33.06 39.25 67.27 52.48-8.4 12.2-12.8 25.38-12.75 38.26v.9a14.34 14.34 0 0 0-.83 2.39 16.13 16.13 0 0 0-.3 6.23 21.18 21.18 0 0 0 2.15 6.84 13.46 13.46 0 0 0 7.22 6.9 10.32 10.32 0 0 0 11.82-15.9 10.29 10.29 0 0 0-1.4-9.27 13.21 13.21 0 0 0-.82-1c.7-10.1 5.16-18.87 9.37-25-3.35 11.87-4.33 19.5-4.33 27.13 0 11.64 5.78 23.32 15 31.66a104.13 104.13 0 0 0-1.83 14.48 53.7 53.7 0 0 0-9.55 1.8 9.61 9.61 0 1 0 5.38 18.45c7.67-2.23 17.08-1.34 21 0a9.6 9.6 0 0 0 10-15.76c.05-.35.07-.7.1-1.06.1-2.2.25-4.26.5-6.23a40.52 40.52 0 0 0 4.95.25 44.23 44.23 0 0 0 5.44-.37 80.09 80.09 0 0 1 .69 6.85v.6a9.61 9.61 0 0 0 10 15.72c4-1.3 13.36-2.2 21 0a9.31 9.31 0 0 0 2.69.39A9.61 9.61 0 0 0 783.9 733a53.91 53.91 0 0 0-9.62-1.81 105.28 105.28 0 0 0-2.22-14.76 46 46 0 0 0 3.48-3.5 44 44 0 0 0 5.28 1.12 28.65 28.65 0 0 0 4.21.33c4.28 0 7.74-1.14 10.32-3.4a12 12 0 0 0 1.36-1.42 9.73 9.73 0 0 0 1.43.1 10.35 10.35 0 0 0 3.76-.71c5.82-2.28 8.56-8.92 9.13-13.9a16.22 16.22 0 0 0-.41-6.22A13.49 13.49 0 0 0 809 685a6.83 6.83 0 0 0 .11-.79 46.58 46.58 0 0 0-2.31-19 40.29 40.29 0 0 1 7.3-6.89c7.54-5.5 13.9-5.9 17.9-5.28a22.9 22.9 0 0 1 10.52 4.74 17.5 17.5 0 0 1 6.35 9.75 20.94 20.94 0 0 1-.5 10.09c-.75 2.36-2.3 5.4-5.42 6.53-5.38 1.94-11.54-3.23-11.6-3.28a3.56 3.56 0 1 0-4.62 5.42c.78.66 6.62 5.42 13.65 5.42a14.59 14.59 0 0 0 5-.86c4.57-1.64 8.05-5.58 9.8-11.08a27.9 27.9 0 0 0 .67-13.75 24.33 24.33 0 0 0-8.84-13.79 29.86 29.86 0 0 0-14-6.23 27.25 27.25 0 0 0-12.25 1 37.29 37.29 0 0 0-10.92 5.57 47.27 47.27 0 0 0-6 5.25 77.41 77.41 0 0 0-5.72-10.16c31.57-12.38 57.22-33.17 65.4-51.83 14.6-4.45 29.52-15.13 38.16-28.63 10.74-16.77 17.12-46.28 1.33-60.8zM781.85 707a36.07 36.07 0 0 1-1.6-.28 40.87 40.87 0 0 0 6.62-21.72 122.05 122.05 0 0 0-2.78-26.21c5.32 8.43 7.95 16.9 7.27 23.68a8.9 8.9 0 0 0 0 1.15l-.36.38a10.3 10.3 0 0 0-1.24 9.29 10.33 10.33 0 0 0 .42 12.71c-1.73 1.2-4.54 1.54-8.33 1z"/><path class="E" d="M638 448.9c-9.44-8.66-22.25-11.88-35.78-11.17-5.16-97.38-66.18-151-146-176.86 76.07 24.74 86.66 7.2 87.7 5C557.4 237.72 468.68 195 474.3 211c4.67 13.33 39.66 21.76 30.78 29.28-7.36 6.23-37.85-9-104.93-4.3-107 7.52-194.4 104.1-202.3 202.1-13.87-.67-27 2.73-36.46 11.75-23 21.82-12.8 65.2 3.47 89.66 12.36 18.6 32.92 33.33 53.4 40.13 9.46 24.93 48.78 57.9 99.24 77.42-12.38 18-18.87 37.45-18.8 56.45 0 .45 0 .9.07 1.33a20.33 20.33 0 0 0-1.23 3.52 24.2 24.2 0 0 0-.45 9.19 31.44 31.44 0 0 0 3.18 10.09c2.62 5.1 6.2 8.53 10.65 10.2a15.23 15.23 0 0 0 17.45-23.47 15.21 15.21 0 0 0-2.08-13.67 15.67 15.67 0 0 0-1.2-1.47c1-14.9 7.6-27.84 13.8-37-4.94 17.5-6.38 28.75-6.38 40 0 17.17 8.53 34.4 22.08 46.7a153.12 153.12 0 0 0-2.81 21.49 78.45 78.45 0 0 0-14.09 2.67 14.18 14.18 0 0 0 7.93 27.22c11.32-3.3 25.2-2 31 0a14.18 14.18 0 0 0 14.7-23.26 18.75 18.75 0 0 0 .12-1.55c.13-3.24.38-6.3.72-9.2a61.24 61.24 0 0 0 7.32.36 66.26 66.26 0 0 0 8-.55c.46 3.17.8 6.53 1 10.1 0 .3 0 .6.07.88a14.18 14.18 0 0 0 14.76 23.2c5.83-1.93 19.7-3.25 31 0a14.38 14.38 0 0 0 4 .57 14.18 14.18 0 0 0 4-27.79 78.63 78.63 0 0 0-14.19-2.68 155.34 155.34 0 0 0-3.27-21.77 71.61 71.61 0 0 0 5.14-5.17 66.57 66.57 0 0 0 7.78 1.66 44.21 44.21 0 0 0 6.21.47c6.32 0 11.43-1.67 15.22-5a18 18 0 0 0 2-2.09 16.22 16.22 0 0 0 2.1.15 15.15 15.15 0 0 0 5.56-1.06c8.57-3.36 12.6-13.15 13.47-20.5a24.32 24.32 0 0 0-.61-9.19 20.31 20.31 0 0 0-2.47-5.62 14.72 14.72 0 0 0 .17-1.16 69 69 0 0 0-3.41-28 59.8 59.8 0 0 1 10.8-10.1c11.13-8.1 20.5-8.7 26.4-7.78a33.88 33.88 0 0 1 15.52 7c3.45 2.78 7.88 7.54 9.37 14.4a30.84 30.84 0 0 1-.74 14.89c-1.1 3.48-3.4 8-8 9.63-8 2.86-17-4.76-17.12-4.84a5.25 5.25 0 0 0-6.81 8c1.15 1 9.76 8 20.13 8a21.78 21.78 0 0 0 7.35-1.26c6.74-2.43 11.88-8.23 14.45-16.35a41.3 41.3 0 0 0 1-20.28 35.94 35.94 0 0 0-13.05-20.35 44 44 0 0 0-20.5-9.18 40.32 40.32 0 0 0-18.07 1.45 54.78 54.78 0 0 0-16.11 8.22 67.56 67.56 0 0 0-8.88 7.74 113.53 113.53 0 0 0-8.45-15c46.57-18.26 84.42-48.95 96.5-76.47 21.52-6.56 43.54-22.32 56.3-42.24 15.84-24.72 25.24-68.26 1.92-89.68zM459.3 744.82c-.77-.12-1.55-.25-2.36-.4a60.31 60.31 0 0 0 9.76-32.1 179.58 179.58 0 0 0-4.1-38.67c7.86 12.43 11.74 24.94 10.73 34.93a13.87 13.87 0 0 0-.06 1.7l-.4.56a15.2 15.2 0 0 0-1.87 13.71 15.23 15.23 0 0 0 .62 18.75c-2.62 1.83-6.73 2.34-12.32 1.53z"/><path class="D" d="M1267.64 467c-7.68-7.05-18.1-9.67-29.1-9.1-4.2-79.25-53.86-122.85-118.8-143.92 61.9 20.13 70.5 5.86 71.37 4.06 10.94-22.9-61.24-57.7-56.66-44.62 3.8 10.86 32.27 17.72 25 23.84-6 5.06-30.8-7.34-85.4-3.5-87.06 6.13-158.14 84.72-164.6 164.47-11.3-.54-22 2.23-29.67 9.57-18.68 17.76-10.4 53 2.83 73 10 15.13 26.8 27.12 43.44 32.65 7.7 20.3 39.7 47.12 80.76 63-10.08 14.66-15.36 30.48-15.3 45.94a9.77 9.77 0 0 0 .06 1.08 17 17 0 0 0-1 2.86 19.84 19.84 0 0 0-.36 7.49 25.83 25.83 0 0 0 2.59 8.21c2.13 4.15 5 6.94 8.66 8.28a12.39 12.39 0 0 0 14.2-19.09 12.32 12.32 0 0 0-1.69-11.12 10.45 10.45 0 0 0-1-1.2c.84-12.12 6.2-22.66 11.25-30.08-4 14.25-5.2 23.4-5.2 32.57 0 14 7 28 18 38a126.84 126.84 0 0 0-2.29 17.49 63.51 63.51 0 0 0-11.46 2.17 11.54 11.54 0 0 0 6.45 22.15c9.2-2.7 20.5-1.6 25.25 0a11.54 11.54 0 0 0 12-18.93c0-.4.1-.84.1-1.26a84.63 84.63 0 0 1 .6-7.48 50.88 50.88 0 0 0 6 .3 56.22 56.22 0 0 0 6.53-.45 97.27 97.27 0 0 1 .82 8.22q0 .36.06.72a11.53 11.53 0 0 0 12 18.88c4.74-1.57 16-2.65 25.25 0a11.67 11.67 0 0 0 3.23.46 11.54 11.54 0 0 0 3.22-22.61 63.77 63.77 0 0 0-11.55-2.18 126.48 126.48 0 0 0-2.65-17.72 57 57 0 0 0 4.17-4.2 55.61 55.61 0 0 0 6.34 1.34 34.87 34.87 0 0 0 5 .39c5.15 0 9.3-1.36 12.4-4.06a14.49 14.49 0 0 0 1.64-1.7 13.9 13.9 0 0 0 1.71.12 12.37 12.37 0 0 0 4.52-.86c7-2.74 10.27-10.7 11-16.7a19.71 19.71 0 0 0-.49-7.48 16.5 16.5 0 0 0-2-4.57c.06-.3.1-.63.14-.95a56.23 56.23 0 0 0-2.78-22.78 48.29 48.29 0 0 1 8.76-8.28c9.06-6.58 16.68-7.08 21.5-6.33a27.52 27.52 0 0 1 12.63 5.68 21 21 0 0 1 7.62 11.71 25 25 0 0 1-.6 12.11c-.9 2.84-2.75 6.5-6.5 7.85-6.47 2.32-13.85-3.88-13.93-3.95a4.27 4.27 0 0 0-5.54 6.51c.93.8 7.94 6.5 16.38 6.5a17.55 17.55 0 0 0 6-1c5.5-2 9.66-6.7 11.76-13.3a33.52 33.52 0 0 0 .8-16.51 29.23 29.23 0 0 0-10.61-16.56 35.88 35.88 0 0 0-16.69-7.47 32.87 32.87 0 0 0-14.71 1.18 44.58 44.58 0 0 0-13.1 6.69 55.13 55.13 0 0 0-7.23 6.3 93.45 93.45 0 0 0-6.87-12.19c37.9-14.86 68.7-39.83 78.5-62.23 17.52-5.34 35.44-18.16 45.8-34.37 12.8-20.2 20.42-55.63 1.43-73.07zm-145.4 240.82c-.62-.1-1.26-.2-1.92-.34a49 49 0 0 0 8-26.12 145.88 145.88 0 0 0-3.34-31.46c6.4 10.1 9.56 20.3 8.73 28.42a10.83 10.83 0 0 0-.05 1.39l-.33.45a12.38 12.38 0 0 0-1.49 11.16 12.34 12.34 0 0 0 .51 15.25c-2.18 1.5-5.55 1.9-10.1 1.25zM3152.5 465c-7.68-7.05-18.1-9.67-29.1-9.1-4.2-79.25-53.86-122.85-118.8-143.92 61.9 20.13 70.5 5.86 71.37 4.06 10.94-22.9-61.24-57.7-56.67-44.62 3.8 10.86 32.28 17.72 25 23.84-6 5.06-30.8-7.34-85.38-3.5-87.1 6.12-158.18 84.7-164.63 164.46-11.3-.54-22 2.23-29.67 9.57-18.68 17.76-10.4 53 2.83 73 10.05 15.13 26.8 27.12 43.44 32.65 7.7 20.3 39.7 47.12 80.75 63-10.07 14.66-15.35 30.48-15.3 45.94a9.77 9.77 0 0 0 .06 1.08 17 17 0 0 0-1 2.86 19.84 19.84 0 0 0-.36 7.49 25.57 25.57 0 0 0 2.59 8.21c2.13 4.15 5 6.94 8.66 8.28a12.39 12.39 0 0 0 14.2-19.09 12.35 12.35 0 0 0-1.69-11.12 10.45 10.45 0 0 0-1-1.2c.84-12.12 6.2-22.66 11.24-30.08-4 14.25-5.2 23.4-5.2 32.57 0 14 6.95 28 18 38a126.84 126.84 0 0 0-2.29 17.49 63.78 63.78 0 0 0-11.47 2.17 11.54 11.54 0 0 0 6.46 22.15c9.2-2.7 20.5-1.6 25.25 0a11.54 11.54 0 0 0 12-18.93c0-.4.1-.84.1-1.26a84.63 84.63 0 0 1 .6-7.48 50.88 50.88 0 0 0 6 .3 56.22 56.22 0 0 0 6.53-.45 97.27 97.27 0 0 1 .82 8.22q0 .36.06.72a11.53 11.53 0 0 0 12 18.88c4.74-1.57 16-2.65 25.25 0a11.54 11.54 0 0 0 6.45-22.15 63.77 63.77 0 0 0-11.55-2.18 126.48 126.48 0 0 0-2.65-17.72 57 57 0 0 0 4.17-4.2 55.92 55.92 0 0 0 6.33 1.34 35.11 35.11 0 0 0 5.06.39c5.15 0 9.3-1.36 12.4-4.06a14.49 14.49 0 0 0 1.64-1.7 13.76 13.76 0 0 0 1.71.12 12.37 12.37 0 0 0 4.52-.86c7-2.74 10.27-10.7 11-16.7a19.71 19.71 0 0 0-.49-7.479 16.5 16.5 0 0 0-2-4.57c.06-.3.1-.63.14-.95a56.23 56.23 0 0 0-2.78-22.78 48.29 48.29 0 0 1 8.76-8.28c9.06-6.58 16.68-7.08 21.5-6.33a27.52 27.52 0 0 1 12.63 5.68 21 21 0 0 1 7.62 11.71 25 25 0 0 1-.6 12.11c-.9 2.84-2.76 6.5-6.5 7.85-6.47 2.32-13.86-3.88-13.93-3.95a4.27 4.27 0 0 0-5.54 6.51c.93.8 7.94 6.5 16.38 6.5a17.59 17.59 0 0 0 6-1c5.48-2 9.66-6.7 11.76-13.3a33.52 33.52 0 0 0 .8-16.51 29.25 29.25 0 0 0-10.62-16.56 35.8 35.8 0 0 0-16.68-7.47 32.86 32.86 0 0 0-14.71 1.18 44.58 44.58 0 0 0-13.1 6.69 55.13 55.13 0 0 0-7.23 6.3 92.39 92.39 0 0 0-6.88-12.19c37.9-14.86 68.7-39.83 78.52-62.23 17.52-5.34 35.44-18.16 45.8-34.37 12.76-20.2 20.4-55.62 1.42-73.06zm-145.4 240.82c-.62-.1-1.26-.2-1.92-.34a49.06 49.06 0 0 0 8-26.12 145.88 145.88 0 0 0-3.34-31.46c6.4 10.1 9.55 20.3 8.73 28.42a10.83 10.83 0 0 0-.05 1.39l-.33.45a12.38 12.38 0 0 0-1.49 11.16 12.39 12.39 0 0 0-1.53 11.83 12.69 12.69 0 0 0 2 3.42c-2.15 1.5-5.52 1.9-10.07 1.25zM2371.28 465c-7.68-7.05-18.1-9.67-29.1-9.1-4.2-79.25-53.86-122.85-118.8-143.92 61.9 20.13 70.5 5.86 71.37 4.06 10.94-22.9-61.24-57.7-56.66-44.62 3.8 10.86 32.27 17.72 25 23.84-6 5.06-30.8-7.34-85.4-3.5-87.1 6.12-158.18 84.7-164.62 164.46-11.3-.54-22 2.23-29.68 9.57-18.68 17.76-10.4 53 2.83 73 10.06 15.13 26.8 27.12 43.44 32.65 7.7 20.3 39.7 47.12 80.76 63-10.08 14.66-15.36 30.48-15.3 45.94a9.77 9.77 0 0 0 .06 1.08 17 17 0 0 0-1 2.86 19.84 19.84 0 0 0-.36 7.49 25.83 25.83 0 0 0 2.59 8.21c2.13 4.15 5 6.94 8.66 8.28a12.39 12.39 0 0 0 14.2-19.09 12.32 12.32 0 0 0-1.69-11.12 10.45 10.45 0 0 0-1-1.2c.84-12.12 6.2-22.66 11.25-30.08-4 14.25-5.2 23.4-5.2 32.57 0 14 6.95 28 18 38a126.84 126.84 0 0 0-2.29 17.49 63.51 63.51 0 0 0-11.46 2.17 11.54 11.54 0 0 0 6.45 22.15c9.2-2.7 20.5-1.6 25.25 0a11.54 11.54 0 0 0 12-18.93c0-.4.1-.84.1-1.26.1-2.64.3-5.12.6-7.48a50.88 50.88 0 0 0 5.95.3 56.22 56.22 0 0 0 6.53-.45c.37 2.57.65 5.3.82 8.22q0 .36.06.72a11.53 11.53 0 0 0 12 18.88c4.74-1.57 16-2.65 25.25 0a11.67 11.67 0 0 0 3.23.46 11.54 11.54 0 0 0 3.22-22.61 63.77 63.77 0 0 0-11.55-2.18 126.48 126.48 0 0 0-2.65-17.72 57 57 0 0 0 4.17-4.2 55.61 55.61 0 0 0 6.34 1.34 34.87 34.87 0 0 0 5.05.39c5.15 0 9.3-1.36 12.4-4.06a14.49 14.49 0 0 0 1.64-1.7 13.9 13.9 0 0 0 1.71.12 12.37 12.37 0 0 0 4.52-.86c7-2.74 10.27-10.7 11-16.7a19.71 19.71 0 0 0-.49-7.479 16.5 16.5 0 0 0-2-4.57c.06-.3.1-.63.14-.95a56.23 56.23 0 0 0-2.78-22.78 48.29 48.29 0 0 1 8.76-8.28c9.06-6.58 16.68-7.08 21.5-6.33a27.52 27.52 0 0 1 12.63 5.68 21 21 0 0 1 7.62 11.71 25 25 0 0 1-.6 12.11c-.9 2.84-2.75 6.5-6.5 7.85-6.47 2.32-13.85-3.88-13.93-3.95a4.27 4.27 0 0 0-5.54 6.51c.93.8 7.94 6.5 16.38 6.5a17.55 17.55 0 0 0 6-1c5.5-2 9.66-6.7 11.76-13.3a33.52 33.52 0 0 0 .8-16.51 29.23 29.23 0 0 0-10.7-16.61 35.88 35.88 0 0 0-16.69-7.47 32.87 32.87 0 0 0-14.71 1.18 44.58 44.58 0 0 0-13.1 6.689 55.13 55.13 0 0 0-7.23 6.3 93.45 93.45 0 0 0-6.87-12.19c37.9-14.86 68.7-39.83 78.5-62.23 17.52-5.34 35.44-18.16 45.8-34.37 12.9-20.14 20.55-55.57 1.56-73zm-145.4 240.82c-.62-.1-1.26-.2-1.92-.34a49 49 0 0 0 8-26.12 145.88 145.88 0 0 0-3.34-31.46c6.4 10.1 9.56 20.3 8.73 28.42a13 13 0 0 0-.05 1.39l-.33.45a12.38 12.38 0 0 0-1.49 11.16 12.34 12.34 0 0 0 .51 15.25c-2.18 1.5-5.55 1.9-10.1 1.25z"/><path class="E" d="M1794 366.68c-11.66-10.7-27.48-14.68-44.2-13.8-6.37-120.3-81.75-186.5-180.32-218.47 94 30.56 107 8.9 108.34 6.17 16.6-34.76-93-87.57-86-67.73 5.76 16.47 49 26.88 38 36.17-9.1 7.7-46.75-11.13-129.6-5.3C1368 113 1260.07 232.3 1250.3 353.37c-17.14-.82-33.33 3.38-45 14.52-28.35 27-15.8 80.53 4.3 110.76 15.26 23 40.66 41.17 65.94 49.56 11.68 30.8 60.25 71.53 122.58 95.64-15.3 22.24-23.3 46.26-23.22 69.72q0 .84.1 1.65a24.74 24.74 0 0 0-1.52 4.34 29.8 29.8 0 0 0-.55 11.36 39.21 39.21 0 0 0 3.92 12.47c3.24 6.3 7.66 10.53 13.15 12.58a18.81 18.81 0 0 0 21.56-29 18.79 18.79 0 0 0-2.56-16.89 17.61 17.61 0 0 0-1.49-1.82c1.27-18.4 9.4-34.4 17.07-45.66-6.1 21.63-7.9 35.52-7.9 49.45 0 21.2 10.54 42.48 27.27 57.7a191.36 191.36 0 0 0-3.47 26.54 96.57 96.57 0 0 0-17.4 3.3 17.51 17.51 0 1 0 9.8 33.62c14-4.08 31.13-2.44 38.32-.06a17.52 17.52 0 0 0 18.17-28.73q.1-.95.15-1.92c.16-4 .46-7.77.88-11.35a77.3 77.3 0 0 0 9 .45 81 81 0 0 0 9.91-.68c.56 3.9 1 8.06 1.25 12.5 0 .36 0 .73.08 1.1a17.5 17.5 0 0 0 18.24 28.65c7.2-2.38 24.34-4 38.32.06a17.51 17.51 0 0 0 9.8-33.62 97.22 97.22 0 0 0-17.53-3.31 192.16 192.16 0 0 0-4-26.89 88.73 88.73 0 0 0 6.34-6.38 82.32 82.32 0 0 0 9.61 2 53.71 53.71 0 0 0 7.67.59c7.8 0 14.12-2.07 18.8-6.17a20.7 20.7 0 0 0 2.48-2.59 17.44 17.44 0 0 0 2.61.19 18.87 18.87 0 0 0 6.86-1.3c10.6-4.16 15.58-16.25 16.64-25.34a30 30 0 0 0-.75-11.35 25.29 25.29 0 0 0-3.06-7 13.12 13.12 0 0 0 .21-1.42c1.1-10.9-.36-22.63-4.2-34.6a73.14 73.14 0 0 1 13.29-12.57c13.75-10 25.32-10.74 32.6-9.6a41.81 41.81 0 0 1 19.18 8.63c4.26 3.43 9.73 9.3 11.57 17.77a38 38 0 0 1-.91 18.39c-1.36 4.3-4.2 9.86-9.87 11.9-9.82 3.53-21-5.88-21.14-6a6.49 6.49 0 1 0-8.41 9.88c1.4 1.2 12 9.87 24.86 9.87a26.56 26.56 0 0 0 9.07-1.56c8.33-3 14.67-10.16 17.85-20.2a50.87 50.87 0 0 0 1.22-24.93c-2.1-9.63-7.66-18.32-16.12-25.13a54.42 54.42 0 0 0-25.32-11.34 49.89 49.89 0 0 0-22.33 1.79 67.73 67.73 0 0 0-19.9 10.15 85.28 85.28 0 0 0-11 9.57 141.28 141.28 0 0 0-10.43-18.51c57.53-22.56 104.27-60.46 119.18-94.46 26.6-8.1 53.8-27.56 69.54-52.17 19.56-30.58 31.18-84.36 2.38-110.82zm-220.75 365.54c-1-.13-1.92-.3-2.92-.5 7.67-12.1 12.06-25.84 12.06-39.65a221.66 221.66 0 0 0-5.06-47.76c9.7 15.34 14.5 30.8 13.25 43.14a16.59 16.59 0 0 0-.07 2.11 16.99 16.99 0 0 0-.5.68 18.8 18.8 0 0 0-2.27 16.94 18.8 18.8 0 0 0 .77 23.16c-3.23 2.26-8.35 2.9-15.26 1.88zm1263.6-323.35c-11-10.12-26-13.88-41.77-13-6-113.7-77.27-176.27-170.43-206.5 88.8 28.88 101.17 8.4 102.4 5.83 15.7-32.85-87.87-82.77-81.3-64 5.45 15.58 46.3 25.42 35.92 34.2-8.6 7.26-44.18-10.52-122.5-5-125 8.8-227 121.54-236.2 236-16.2-.78-31.5 3.2-42.57 13.72-26.8 25.48-14.94 76.1 4 104.7 14.43 21.7 38.44 38.9 62.33 46.85 11 29.1 56.95 67.6 115.87 90.4-14.45 21-22 43.73-22 65.9a13.17 13.17 0 0 0 .09 1.55 24.7 24.7 0 0 0-1.45 4.11 28.41 28.41 0 0 0-.51 10.74 37 37 0 0 0 3.7 11.78c3.06 6 7.24 10 12.44 11.9a17.77 17.77 0 0 0 20.37-27.39 17.75 17.75 0 0 0-2.42-16 18.18 18.18 0 0 0-1.41-1.72c1.2-17.4 8.88-32.5 16.13-43.16-5.76 20.45-7.45 33.57-7.45 46.74 0 20.05 10 40.16 25.78 54.53a178.57 178.57 0 0 0-3.28 25.09 92.32 92.32 0 0 0-16.45 3.11 16.55 16.55 0 1 0 9.26 31.78c13.2-3.85 29.42-2.3 36.22 0a16.56 16.56 0 0 0 17.17-27.16 21.79 21.79 0 0 0 .14-1.8 148.16 148.16 0 0 1 .84-10.73 75.49 75.49 0 0 0 8.54.43 80.25 80.25 0 0 0 9.37-.65 139.41 139.41 0 0 1 1.18 11.8c0 .35.05.7.08 1a16.56 16.56 0 0 0 17.24 27.09c6.8-2.26 23-3.8 36.22 0a16.55 16.55 0 0 0 9.26-31.78 91.28 91.28 0 0 0-16.57-3.12 180.79 180.79 0 0 0-3.81-25.42 81.11 81.11 0 0 0 6-6 78.74 78.74 0 0 0 9.09 1.93 50.58 50.58 0 0 0 7.25.55c7.38 0 13.34-1.95 17.77-5.83a20 20 0 0 0 2.36-2.44 18.26 18.26 0 0 0 2.46.17 17.61 17.61 0 0 0 6.48-1.23c10-3.92 14.73-15.35 15.73-24a28.39 28.39 0 0 0-.71-10.72 23.57 23.57 0 0 0-2.89-6.57 11.86 11.86 0 0 0 .2-1.35c1-10.3-.34-21.4-4-32.7a69.89 69.89 0 0 1 12.57-11.88c13-9.44 23.94-10.15 30.83-9.1a39.62 39.62 0 0 1 18.12 8.16c4 3.25 9.2 8.8 10.94 16.8a36 36 0 0 1-.86 17.38c-1.3 4.07-4 9.32-9.33 11.25-9.28 3.33-19.88-5.56-20-5.65a6.13 6.13 0 0 0-7.95 9.33c1.34 1.14 11.4 9.34 23.5 9.34a25.11 25.11 0 0 0 8.57-1.48c7.88-2.83 13.87-9.6 16.87-19.08a48.22 48.22 0 0 0 1.16-23.69c-2-9.1-7.24-17.32-15.23-23.75a51.49 51.49 0 0 0-23.94-10.72 47.15 47.15 0 0 0-21.1 1.69 64 64 0 0 0-18.81 9.6 79.58 79.58 0 0 0-10.37 9 133.83 133.83 0 0 0-9.86-17.49c54.37-21.33 98.56-57.15 112.65-89.3 25.13-7.66 50.85-26 65.73-49.3 18.6-28.88 29.6-79.7 2.34-104.72zm-208.63 345.5c-.9-.13-1.8-.3-2.75-.47 7.25-11.43 11.4-24.42 11.4-37.48a209.54 209.54 0 0 0-4.79-45.14c9.17 14.5 13.7 29.1 12.53 40.78a14.77 14.77 0 0 0-.07 2c-.16.2-.32.42-.47.65a17.71 17.71 0 0 0-2.15 16 17.77 17.77 0 0 0 .73 21.89c-3.05 2.13-7.9 2.73-14.43 1.77z"/></svg>