<svg xmlns="http://www.w3.org/2000/svg" xmlns:xlink="http://www.w3.org/1999/xlink" width="3000" height="700"><style><![CDATA[.C{fill:#4dba4a}.F{fill:#4eb748}.G{fill:#4db547}]]></style><path d="M0 0h3000v700H0z" fill="#4cbf4b"/><g opacity=".5" class="C"><use xlink:href="#B"/><path d="M72.77 204.42h-36.3A4.55 4.55 0 0 0 32 209v40.82l9-9.1h31.77a4.55 4.55 0 0 0 4.53-4.54V209a4.55 4.55 0 0 0-4.53-4.58zM383.58 494H347.3a4.56 4.56 0 0 0-4.54 4.54v40.8l9.08-9.07h31.74a4.55 4.55 0 0 0 4.54-4.53v-27.2a4.55 4.55 0 0 0-4.54-4.55zm-229.66 92.47h-36.3a4.55 4.55 0 0 0-4.53 4.53v40.82l9.07-9.07h31.75a4.55 4.55 0 0 0 4.53-4.54V591a4.55 4.55 0 0 0-4.53-4.53z"/><use xlink:href="#C"/><use xlink:href="#D"/><use xlink:href="#E"/><use xlink:href="#F"/><path d="M831.37 327.32H795.1a4.55 4.55 0 0 0-4.54 4.54v40.82l9.07-9.07h31.75a4.55 4.55 0 0 0 4.53-4.54v-27.2a4.55 4.55 0 0 0-4.53-4.54zm157.1-270.58h-36.3a4.55 4.55 0 0 0-4.53 4.53v40.82l9.07-9.1h31.75a4.55 4.55 0 0 0 4.54-4.51v-27.2a4.55 4.55 0 0 0-4.54-4.53z"/><use xlink:href="#E" x="380.73" y="-251.16"/><path d="M1236.22 69.66h-36.28a4.55 4.55 0 0 0-4.53 4.54v40.8l9.07-9.07h31.74a4.56 4.56 0 0 0 4.54-4.54V74.2a4.55 4.55 0 0 0-4.54-4.54zM1400.9 115h-36.28a4.55 4.55 0 0 0-4.54 4.53v40.82l9.07-9.07h31.75a4.55 4.55 0 0 0 4.54-4.54v-27.2a4.55 4.55 0 0 0-4.54-4.55zm10.97 385.1h-36.28a4.55 4.55 0 0 0-4.54 4.53v40.82l9.08-9.07h31.74a4.55 4.55 0 0 0 4.54-4.53v-27.22a4.55 4.55 0 0 0-4.54-4.53zm-119.6 13.3H1256a4.55 4.55 0 0 0-4.54 4.53v40.82l9.07-9.07h31.75a4.55 4.55 0 0 0 4.53-4.54v-27.2a4.55 4.55 0 0 0-4.53-4.53zM1602 592.23h-36.28a4.55 4.55 0 0 0-4.54 4.53v40.82l9.07-9.07H1602a4.55 4.55 0 0 0 4.53-4.54v-27.2a4.55 4.55 0 0 0-4.53-4.53z"/><use xlink:href="#C" x="793.77" y="109.73"/><path d="M1565 403.12h-36.28a4.55 4.55 0 0 0-4.53 4.54v40.82l9.07-9.07H1565a4.55 4.55 0 0 0 4.54-4.54v-27.2a4.55 4.55 0 0 0-4.54-4.54z"/><use xlink:href="#B" x="1332.54" y="330.44"/><path d="M1587.7 156.86h-36.28a4.55 4.55 0 0 0-4.54 4.54v40.82l9.07-9.07h31.75a4.56 4.56 0 0 0 4.54-4.54v-27.2a4.55 4.55 0 0 0-4.54-4.54z"/><use xlink:href="#F" x="1165.58" y="-335.8"/><use xlink:href="#G"/><path d="M1936 519.74h-36.28a4.55 4.55 0 0 0-4.54 4.53v40.82l9.07-9.07H1936a4.55 4.55 0 0 0 4.53-4.53v-27.22a4.55 4.55 0 0 0-4.53-4.53z"/><use xlink:href="#G" x="168.6" y="210.54"/><path d="M2366.2 592.23h-36.28a4.55 4.55 0 0 0-4.54 4.53v40.82l9.07-9.07h31.75a4.55 4.55 0 0 0 4.54-4.54v-27.2a4.55 4.55 0 0 0-4.54-4.53zM2177.06 434.5h-36.28a4.55 4.55 0 0 0-4.54 4.53v40.82l9.07-9.07h31.75a4.55 4.55 0 0 0 4.54-4.53V439a4.55 4.55 0 0 0-4.54-4.51zM2327 327.32h-36.3a4.55 4.55 0 0 0-4.53 4.54v40.82l9.07-9.07H2327a4.55 4.55 0 0 0 4.53-4.54v-27.2a4.55 4.55 0 0 0-4.53-4.54z"/><use xlink:href="#E" x="1795.8" y="-195"/><use xlink:href="#D" x="1971.84" y="-288.79"/><path d="M2726.7 602.08h-36.28a4.55 4.55 0 0 0-4.54 4.53v40.82l9.07-9.07h31.75a4.55 4.55 0 0 0 4.54-4.53V606.6a4.55 4.55 0 0 0-4.54-4.53zm222.82-575.34h-36.28a4.55 4.55 0 0 0-4.54 4.53V72.1l9.07-9.07h31.75a4.55 4.55 0 0 0 4.53-4.53V31.27a4.55 4.55 0 0 0-4.53-4.53z"/><use xlink:href="#F" x="2425.68" y="-28.24"/><path d="M2117.38 314.67h-36.3a4.55 4.55 0 0 0-4.53 4.53V360l9.07-9.07h31.75a4.55 4.55 0 0 0 4.53-4.53v-27.2a4.55 4.55 0 0 0-4.53-4.53zm-376.1 287.4H1705a4.55 4.55 0 0 0-4.53 4.53v40.82l9.07-9.07h31.74a4.55 4.55 0 0 0 4.54-4.53V606.6a4.55 4.55 0 0 0-4.55-4.53zM1251.8 627.8h-36.3a4.55 4.55 0 0 0-4.53 4.54v40.8l9.07-9.07h31.75a4.55 4.55 0 0 0 4.53-4.53v-27.2a4.55 4.55 0 0 0-4.53-4.54z"/></g><path d="M168.3 85.33h-125a9.4 9.4 0 0 0-9.38 9.37v84.4l18.75-18.75H168.3a9.41 9.41 0 0 0 9.38-9.38V94.7a9.4 9.4 0 0 0-9.38-9.37zm522.87-33.06h-125a9.4 9.4 0 0 0-9.37 9.38V146l18.75-18.75h115.62a9.4 9.4 0 0 0 9.37-9.38V61.65a9.4 9.4 0 0 0-9.37-9.38zM823.63 239.6h-125a9.41 9.41 0 0 0-9.38 9.38v84.4L708 314.6h115.63a9.4 9.4 0 0 0 9.38-9.37v-56.23a9.41 9.41 0 0 0-9.38-9.41zm673.75 323h-125a9.4 9.4 0 0 0-9.38 9.4v84.4l18.75-18.75h115.64a9.4 9.4 0 0 0 9.37-9.38V572a9.4 9.4 0 0 0-9.38-9.41zM1922.6 253h-125a9.41 9.41 0 0 0-9.38 9.38v84.4L1807 328h115.64a9.4 9.4 0 0 0 9.37-9.37v-56.3a9.4 9.4 0 0 0-9.4-9.34zm-204.35-69.42h-125a9.4 9.4 0 0 0-9.37 9.38v84.38l18.75-18.75h115.64a9.4 9.4 0 0 0 9.37-9.38V193a9.4 9.4 0 0 0-9.39-9.42zM2573.1 96.9h-125a9.41 9.41 0 0 0-9.38 9.38v84.4l18.75-18.76h115.64a9.4 9.4 0 0 0 9.37-9.37V106.3a9.4 9.4 0 0 0-9.38-9.38zm-410.7 480.97h-125a9.4 9.4 0 0 0-9.37 9.38v84.4l18.75-18.76h115.64a9.4 9.4 0 0 0 9.37-9.37v-56.26a9.4 9.4 0 0 0-9.39-9.38zm868.05-461.8h-125a9.41 9.41 0 0 0-9.38 9.38v84.38l18.75-18.75h115.64a9.4 9.4 0 0 0 9.38-9.37v-56.26a9.41 9.41 0 0 0-9.39-9.38zM1574.4 39.7h-125a9.4 9.4 0 0 0-9.38 9.37v84.4l18.75-18.75h115.64a9.4 9.4 0 0 0 9.37-9.38V49.08a9.4 9.4 0 0 0-9.38-9.37zm-206.35 339.22H1243a9.4 9.4 0 0 0-9.37 9.37v84.4l18.75-18.75H1368a9.41 9.41 0 0 0 9.38-9.38V388.3a9.4 9.4 0 0 0-9.34-9.37zm122.57-165.34h-125a9.4 9.4 0 0 0-9.37 9.38v84.38L1375 288.6h115.63a9.41 9.41 0 0 0 9.38-9.38v-56.2a9.41 9.41 0 0 0-9.39-9.42z" opacity=".8" class="C"/><path d="M263.82 298.76H78.54a17 17 0 0 0-16.91 16.91v152.18L95.45 434h168.37a17 17 0 0 0 16.91-16.9V315.67a17 17 0 0 0-16.91-16.91zm150.82-275.6H229.37a17 17 0 0 0-16.91 16.91v152.18l33.82-33.82h168.36a17 17 0 0 0 16.91-16.91V40.06a17 17 0 0 0-16.91-16.91zM766.3 380H581a17 17 0 0 0-16.91 16.91v152.18l33.82-33.8h168.4a17 17 0 0 0 16.91-16.91V396.9A17 17 0 0 0 766.3 380zm528.88-280.85H1109.9a17 17 0 0 0-16.9 16.91v152.2l33.82-33.82h168.37a17 17 0 0 0 16.91-16.91V116.06a17 17 0 0 0-16.92-16.91zm-178.54 386.68H931.37a17 17 0 0 0-16.91 16.91v152.18l33.82-33.82h168.36a17 17 0 0 0 16.91-16.91V502.74a17 17 0 0 0-16.91-16.91zm699.13-70.28H1630.5a17 17 0 0 0-16.9 16.91v152.18l33.8-33.8h168.37a17 17 0 0 0 16.91-16.91V432.46a17 17 0 0 0-16.91-16.91zm592.6 27.32H2223.1a17 17 0 0 0-16.91 16.9v152.23l33.8-33.86h168.36a17 17 0 0 0 16.91-16.91V459.77a17 17 0 0 0-16.9-16.9zM1844.74-17.8h-185.27a17 17 0 0 0-16.91 16.9v152.18l33.82-33.8h168.36a17 17 0 0 0 16.91-16.91V-.9a17 17 0 0 0-16.91-16.91zm991.18 42.74h-185.27a17 17 0 0 0-16.91 16.91V194l33.82-33.8h168.36a17 17 0 0 0 16.91-16.91V41.85a17 17 0 0 0-16.91-16.91z" opacity=".7" class="F"/><path class="G" d="M482.54 489.26H142.1a36.41 36.41 0 0 0-36.31 36.3v326.74l72.6-72.6h304.13a36.41 36.41 0 0 0 36.3-36.31V525.56a36.4 36.4 0 0 0-36.3-36.3zM879.57-86.5H539.14a36.42 36.42 0 0 0-36.31 36.3v326.74l72.6-72.6h304.13a36.41 36.41 0 0 0 36.3-36.3V-50.2a36.41 36.41 0 0 0-36.3-36.3zM2368.3-37.75h-340.43a36.42 36.42 0 0 0-36.31 36.31V325.3l72.6-72.6h304.13a36.42 36.42 0 0 0 36.3-36.31v-217.83a36.42 36.42 0 0 0-36.3-36.31zM2929 253h-340.4a36.42 36.42 0 0 0-36.31 36.3v326.7l72.6-72.6H2929a36.41 36.41 0 0 0 36.3-36.3V289.27A36.41 36.41 0 0 0 2929 253z"/><defs ><path id="B" d="M146.62 6.9h-36.28a4.56 4.56 0 0 0-4.54 4.54v40.82l9.07-9.07h31.75a4.55 4.55 0 0 0 4.54-4.54v-27.2a4.56 4.56 0 0 0-4.54-4.54z"/><path id="C" d="M380.6 253.4h-36.28a4.55 4.55 0 0 0-4.54 4.53v40.82l9.07-9.07h31.75a4.56 4.56 0 0 0 4.54-4.54v-27.2a4.55 4.55 0 0 0-4.54-4.53z"/><path id="D" d="M568.5 311.07h-36.28a4.55 4.55 0 0 0-4.54 4.54v40.8l9.07-9.07h31.75a4.55 4.55 0 0 0 4.54-4.53v-27.2a4.56 4.56 0 0 0-4.54-4.54z"/><path id="E" d="M691.8 547.7h-36.3a4.55 4.55 0 0 0-4.53 4.53v40.82l9.07-9.07h31.75a4.55 4.55 0 0 0 4.53-4.53v-27.22a4.55 4.55 0 0 0-4.53-4.53z"/><path id="F" d="M523.16 643.14h-36.3a4.55 4.55 0 0 0-4.53 4.54v40.82l9.07-9.07h31.75a4.55 4.55 0 0 0 4.53-4.54v-27.2a4.55 4.55 0 0 0-4.53-4.54z"/><path id="G" d="M1904.86 269.3h-36.28a4.55 4.55 0 0 0-4.54 4.54v40.82l9.07-9.07h31.75a4.55 4.55 0 0 0 4.54-4.54v-27.2a4.55 4.55 0 0 0-4.54-4.54z"/></defs></svg>